<svg width="17" height="16" viewBox="0 0 17 16" fill="none" xmlns="http://www.w3.org/2000/svg">
<path d="M5.92839 10C5.8488 10 5.77078 9.97931 5.70308 9.94026C5.63537 9.90121 5.58066 9.84533 5.54506 9.77889C5.50947 9.71244 5.4944 9.63806 5.50155 9.56408C5.5087 9.49009 5.53778 9.41943 5.58553 9.36L8.15696 6.16C8.19688 6.11032 8.24864 6.07 8.30815 6.04223C8.36766 6.01446 8.43328 6 8.49982 6C8.56635 6 8.63197 6.01446 8.69148 6.04223C8.75099 6.07 8.80275 6.11032 8.84267 6.16L11.4141 9.36C11.4619 9.41943 11.4909 9.49009 11.4981 9.56408C11.5052 9.63806 11.4902 9.71244 11.4546 9.77889C11.419 9.84533 11.3643 9.90121 11.2966 9.94026C11.2289 9.97931 11.1508 10 11.0712 10H5.92839Z" fill="#009906"/>
</svg>
