<svg width="16" height="16" viewBox="0 0 16 16" fill="none" xmlns="http://www.w3.org/2000/svg">
<path d="M5.4284 10C5.34881 10 5.27079 9.97931 5.20309 9.94026C5.13539 9.90121 5.08067 9.84533 5.04508 9.77889C5.00948 9.71244 4.99442 9.63806 5.00156 9.56408C5.00871 9.49009 5.03779 9.41943 5.08555 9.36L7.65697 6.16C7.69689 6.11032 7.74866 6.07 7.80817 6.04223C7.86768 6.01446 7.9333 6 7.99983 6C8.06637 6 8.13199 6.01446 8.19149 6.04223C8.251 6.07 8.30277 6.11032 8.34269 6.16L10.9141 9.36C10.9619 9.41943 10.991 9.49009 10.9981 9.56408C11.0052 9.63806 10.9902 9.71244 10.9546 9.77889C10.919 9.84533 10.8643 9.90121 10.7966 9.94026C10.7289 9.97931 10.6509 10 10.5713 10H5.4284Z" fill="#404040"/>
</svg>
