<svg width="20" height="20" viewBox="0 0 20 20" fill="none" xmlns="http://www.w3.org/2000/svg">
<mask id="mask0_378_658" style="mask-type:alpha" maskUnits="userSpaceOnUse" x="0" y="0" width="20" height="20">
<rect width="20" height="20" fill="#D9D9D9"/>
</mask>
<g mask="url(#mask0_378_658)">
<path d="M5.41667 3.7H5.51667V3.6V2.1H6.92778V3.6V3.7H7.02778H13.4722H13.5722V3.6V2.1H14.9833V3.6V3.7H15.0833H15.8889C16.3054 3.7 16.6594 3.84615 16.9563 4.14096C17.2531 4.43574 17.4 4.78696 17.4 5.2V16.4C17.4 16.813 17.2531 17.1643 16.9563 17.459C16.6594 17.7539 16.3054 17.9 15.8889 17.9H4.61111C4.19456 17.9 3.84058 17.7539 3.54373 17.459C3.2469 17.1643 3.1 16.813 3.1 16.4V5.2C3.1 4.78696 3.2469 4.43574 3.54373 4.14096C3.84058 3.84615 4.19456 3.7 4.61111 3.7H5.41667ZM4.51111 16.4V16.5H4.61111H15.8889H15.9889V16.4V8.4V8.3H15.8889H4.61111H4.51111V8.4V16.4ZM4.51111 6.8V6.9H4.61111H15.8889H15.9889V6.8V5.2V5.1H15.8889H4.61111H4.51111V5.2V6.8ZM10.25 11.5C10.0467 11.5 9.88118 11.4328 9.74651 11.299C9.61187 11.1653 9.54444 11.0013 9.54444 10.8C9.54444 10.5987 9.61187 10.4347 9.74651 10.301C9.88118 10.1672 10.0467 10.1 10.25 10.1C10.4533 10.1 10.6188 10.1672 10.7535 10.301C10.8881 10.4347 10.9556 10.5987 10.9556 10.8C10.9556 11.0013 10.8881 11.1653 10.7535 11.299C10.6188 11.4328 10.4533 11.5 10.25 11.5ZM7.02778 11.5C6.8245 11.5 6.65896 11.4328 6.52428 11.299C6.38965 11.1653 6.32222 11.0013 6.32222 10.8C6.32222 10.5987 6.38965 10.4347 6.52429 10.301C6.65896 10.1672 6.8245 10.1 7.02778 10.1C7.23105 10.1 7.3966 10.1672 7.53127 10.301C7.6659 10.4347 7.73333 10.5987 7.73333 10.8C7.73333 11.0013 7.6659 11.1653 7.53127 11.299C7.3966 11.4328 7.23105 11.5 7.02778 11.5ZM13.4722 11.5C13.2689 11.5 13.1034 11.4328 12.9687 11.299C12.8341 11.1653 12.7667 11.0013 12.7667 10.8C12.7667 10.5987 12.8341 10.4347 12.9687 10.301C13.1034 10.1672 13.2689 10.1 13.4722 10.1C13.6755 10.1 13.841 10.1672 13.9757 10.301C14.1103 10.4347 14.1778 10.5987 14.1778 10.8C14.1778 11.0013 14.1103 11.1653 13.9757 11.299C13.841 11.4328 13.6755 11.5 13.4722 11.5ZM10.25 14.7C10.0467 14.7 9.88118 14.6328 9.74651 14.499C9.61187 14.3653 9.54444 14.2013 9.54444 14C9.54444 13.7987 9.61187 13.6347 9.74651 13.501C9.88118 13.3672 10.0467 13.3 10.25 13.3C10.4533 13.3 10.6188 13.3672 10.7535 13.501C10.8881 13.6347 10.9556 13.7987 10.9556 14C10.9556 14.2013 10.8881 14.3653 10.7535 14.499C10.6188 14.6328 10.4533 14.7 10.25 14.7ZM7.02778 14.7C6.8245 14.7 6.65896 14.6328 6.52429 14.499C6.38965 14.3653 6.32222 14.2013 6.32222 14C6.32222 13.7987 6.38965 13.6347 6.52429 13.501C6.65896 13.3672 6.8245 13.3 7.02778 13.3C7.23105 13.3 7.3966 13.3672 7.53127 13.501C7.6659 13.6347 7.73333 13.7987 7.73333 14C7.73333 14.2013 7.6659 14.3653 7.53127 14.499C7.3966 14.6328 7.23105 14.7 7.02778 14.7ZM13.4722 14.7C13.2689 14.7 13.1034 14.6328 12.9687 14.499C12.8341 14.3653 12.7667 14.2013 12.7667 14C12.7667 13.7987 12.8341 13.6347 12.9687 13.501C13.1034 13.3672 13.2689 13.3 13.4722 13.3C13.6755 13.3 13.841 13.3672 13.9757 13.501C14.1103 13.6347 14.1778 13.7987 14.1778 14C14.1778 14.2013 14.1103 14.3653 13.9757 14.499C13.841 14.6328 13.6755 14.7 13.4722 14.7Z" fill="#BBBBBB" stroke="white" stroke-width="0.2"/>
</g>
</svg>
