<svg width="6" height="5" viewBox="0 0 6 5" fill="none" xmlns="http://www.w3.org/2000/svg">
<path d="M5.57143 0.5C5.65102 0.5 5.72904 0.520686 5.79674 0.55974C5.86445 0.598794 5.91916 0.654672 5.95475 0.721115C5.99035 0.787557 6.00542 0.861938 5.99827 0.935922C5.99112 1.00991 5.96204 1.08057 5.91429 1.14L3.34286 4.34C3.30294 4.38968 3.25117 4.43 3.19166 4.45777C3.13215 4.48554 3.06653 4.5 3 4.5C2.93347 4.5 2.86785 4.48554 2.80834 4.45777C2.74883 4.43 2.69706 4.38968 2.65714 4.34L0.085715 1.14C0.0379607 1.08057 0.00887936 1.00991 0.00173156 0.935923C-0.00541623 0.861938 0.00965229 0.787557 0.0452463 0.721115C0.0808403 0.654673 0.135554 0.598794 0.203258 0.55974C0.270962 0.520686 0.348981 0.5 0.428572 0.5L5.57143 0.5Z" fill="#747474"/>
</svg>
